<svg width="314" height="187" viewBox="0 0 314 187" fill="none" xmlns="http://www.w3.org/2000/svg">
<path fill-rule="evenodd" clip-rule="evenodd" d="M9.35106 170.981C9.61952 170.981 9.84771 170.887 10.0356 170.7C10.2236 170.512 10.3175 170.283 10.3175 170.015V143.846C10.5323 141.806 11.2974 140.196 12.6129 139.015C13.9283 137.834 15.6062 137.244 17.6465 137.244C19.8479 137.244 21.6198 137.968 22.9621 139.418C24.3044 140.867 24.9756 142.826 24.9756 145.296V170.015C24.9756 170.283 25.0695 170.512 25.2574 170.7C25.4454 170.887 25.6736 170.981 25.942 170.981H33.271C33.5395 170.981 33.7677 170.887 33.9556 170.7C34.1435 170.512 34.2375 170.283 34.2375 170.015V145.215C34.2375 142.8 34.9355 140.867 36.3315 139.418C37.7275 137.968 39.5262 137.244 41.7276 137.244C43.929 137.244 45.6874 137.968 47.0029 139.418C48.3183 140.867 48.9761 142.826 48.9761 145.296V170.015C48.9761 170.283 49.07 170.512 49.258 170.7C49.4459 170.887 49.6741 170.981 49.9425 170.981H57.2716C57.54 170.981 57.7682 170.887 57.9561 170.7C58.1441 170.512 58.238 170.283 58.238 170.015V143.363C58.238 138.908 57.0702 135.432 54.7346 132.936C52.399 130.44 49.164 129.192 45.0297 129.192C42.4524 129.192 40.1168 129.702 38.0228 130.722C35.9288 131.742 34.2912 133.325 33.11 135.472C32.8952 135.687 32.7073 135.687 32.5462 135.472C31.4723 133.432 29.9421 131.876 27.9555 130.802C25.9689 129.729 23.6601 129.192 21.0292 129.192C18.8815 129.192 16.9351 129.554 15.1901 130.279C13.4451 131.003 11.982 132.117 10.8008 133.62C10.6934 133.781 10.586 133.835 10.4786 133.781C10.3712 133.728 10.3175 133.62 10.3175 133.459V130.802C10.3175 130.534 10.2236 130.306 10.0356 130.118C9.84771 129.93 9.61952 129.836 9.35106 129.836H1.9415C1.67304 129.836 1.44485 129.93 1.25692 130.118C1.069 130.306 0.975037 130.534 0.975037 130.802V170.015C0.975037 170.283 1.069 170.512 1.25692 170.7C1.44485 170.887 1.67304 170.981 1.9415 170.981H9.35106ZM80.689 171.625C84.8234 171.625 88.3939 170.538 91.4007 168.364C94.4075 166.19 96.5283 163.198 97.7632 159.387C98.676 156.649 99.1324 153.589 99.1324 150.207C99.1324 146.664 98.6492 143.605 97.6827 141.028C96.4478 137.324 94.3403 134.426 91.3604 132.332C88.3805 130.238 84.8502 129.192 80.7696 129.192C76.4742 129.192 72.7962 130.238 69.7358 132.332C66.6753 134.426 64.5276 137.351 63.2927 141.109C62.4336 143.793 62.0041 146.852 62.0041 150.288C62.0041 153.509 62.4605 156.568 63.3732 159.467C64.6082 163.278 66.7424 166.258 69.7761 168.405C72.8097 170.552 76.4473 171.625 80.689 171.625ZM75.3332 161.883C76.8098 163.01 78.595 163.574 80.689 163.574C82.6757 163.574 84.3804 163.01 85.8032 161.883C87.2261 160.755 88.2597 159.172 88.904 157.132C89.4409 155.361 89.7094 153.106 89.7094 150.368C89.7094 147.47 89.4409 145.215 88.904 143.605C88.3134 141.565 87.2932 139.995 85.8435 138.894C84.3938 137.794 82.622 137.244 80.528 137.244C78.5413 137.244 76.8232 137.794 75.3735 138.894C73.9238 139.995 72.8768 141.565 72.2325 143.605C71.6956 145.483 71.4271 147.738 71.4271 150.368C71.4271 152.999 71.6956 155.253 72.2325 157.132C72.8231 159.172 73.8567 160.755 75.3332 161.883ZM117.476 186.924C123.704 186.924 128.738 185.488 132.577 182.616C136.416 179.745 138.335 174.954 138.335 168.244V130.802C138.335 130.534 138.241 130.306 138.054 130.118C137.866 129.93 137.637 129.836 137.369 129.836H129.959C129.691 129.836 129.463 129.93 129.275 130.118C129.087 130.306 128.993 130.534 128.993 130.802V132.735C128.993 132.896 128.939 133.003 128.832 133.057C128.725 133.11 128.617 133.057 128.51 132.896C126.147 130.426 122.845 129.192 118.603 129.192C115.06 129.192 111.972 130.171 109.342 132.131C106.711 134.09 104.858 136.707 103.784 139.981C102.925 142.343 102.496 145.752 102.496 150.207C102.496 154.18 102.845 157.427 103.543 159.95C104.67 163.6 106.684 166.311 109.583 168.083C112.483 169.854 115.677 170.74 119.167 170.74C123.194 170.74 126.308 169.559 128.51 167.197C128.617 167.09 128.725 167.049 128.832 167.076C128.939 167.103 128.993 167.197 128.993 167.358V168.002C128.993 171.76 128.04 174.43 126.134 176.014C124.228 177.597 121.261 178.389 117.234 178.389C115.999 178.389 114.603 178.309 113.046 178.148C112.295 178.148 111.919 178.443 111.919 179.033L111.677 185.636C111.677 186.28 111.972 186.629 112.563 186.683C114.174 186.844 115.811 186.924 117.476 186.924ZM115.664 161.44C117.087 162.54 118.791 163.09 120.778 163.09C122.872 163.09 124.563 162.554 125.852 161.48C127.141 160.406 128 159.011 128.429 157.293C128.644 156.488 128.792 155.616 128.872 154.676C128.953 153.737 128.993 152.22 128.993 150.127C128.993 148.087 128.953 146.624 128.872 145.738C128.792 144.853 128.617 143.98 128.349 143.122C127.919 141.35 127.047 139.928 125.731 138.854C124.416 137.78 122.738 137.244 120.698 137.244C118.765 137.244 117.127 137.78 115.785 138.854C114.442 139.928 113.476 141.35 112.885 143.122C112.241 144.625 111.919 146.987 111.919 150.207C111.919 153.535 112.187 155.871 112.724 157.212C113.261 158.93 114.241 160.339 115.664 161.44ZM162.354 171.706C165.737 171.706 168.811 171.062 171.576 169.774C174.341 168.485 176.556 166.66 178.22 164.298C178.542 163.815 178.462 163.386 177.979 163.01L172.985 158.903C172.824 158.742 172.636 158.662 172.421 158.662C172.099 158.662 171.831 158.823 171.616 159.145C169.468 162.151 166.569 163.654 162.918 163.654C157.924 163.6 154.783 161.641 153.495 157.776C153.173 157.132 152.931 155.924 152.77 154.153C152.77 153.884 152.904 153.75 153.173 153.75H178.381C179.026 153.75 179.348 153.428 179.348 152.784L179.428 150.288C179.428 148.624 179.321 147.121 179.106 145.779C177.764 134.721 171.804 129.192 161.226 129.192C157.038 129.192 153.454 130.279 150.475 132.453C147.495 134.627 145.468 137.593 144.394 141.35C143.75 143.283 143.427 145.806 143.427 148.919C143.427 154.072 144.045 158.098 145.28 160.997C146.622 164.379 148.756 167.009 151.683 168.888C154.609 170.767 158.166 171.706 162.354 171.706ZM152.85 146.423C152.743 146.691 152.85 146.825 153.173 146.825H169.522C169.79 146.825 169.925 146.691 169.925 146.423C169.817 145.081 169.656 144.061 169.441 143.363C168.958 141.431 168.005 139.928 166.582 138.854C165.159 137.78 163.374 137.244 161.226 137.244C159.24 137.244 157.589 137.74 156.273 138.733C154.958 139.726 154.032 141.109 153.495 142.88C153.173 143.793 152.958 144.974 152.85 146.423ZM192.735 170.981C193.004 170.981 193.232 170.887 193.42 170.7C193.608 170.512 193.702 170.284 193.702 170.015V145.457C193.702 142.987 194.413 141.001 195.836 139.498C197.259 137.995 199.124 137.244 201.433 137.244C203.742 137.244 205.594 138.009 206.99 139.538C208.386 141.068 209.084 143.068 209.084 145.537V170.015C209.084 170.284 209.178 170.512 209.366 170.7C209.554 170.887 209.782 170.981 210.051 170.981H217.46C217.729 170.981 217.957 170.887 218.145 170.7C218.333 170.512 218.427 170.284 218.427 170.015V143.605C218.427 139.149 217.125 135.633 214.521 133.057C211.917 130.48 208.44 129.192 204.091 129.192C199.635 129.192 196.306 130.641 194.104 133.54C194.051 133.701 193.97 133.755 193.863 133.701C193.755 133.647 193.702 133.54 193.702 133.379V130.802C193.702 130.534 193.608 130.306 193.42 130.118C193.232 129.93 193.004 129.836 192.735 129.836H185.326C185.057 129.836 184.829 129.93 184.641 130.118C184.453 130.306 184.359 130.534 184.359 130.802V170.015C184.359 170.284 184.453 170.512 184.641 170.7C184.829 170.887 185.057 170.981 185.326 170.981H192.735ZM234.11 170.7C233.922 170.887 233.694 170.981 233.425 170.981H226.016C225.747 170.981 225.519 170.887 225.331 170.7C225.143 170.512 225.049 170.283 225.049 170.015V130.722C225.049 130.453 225.143 130.225 225.331 130.037C225.519 129.849 225.747 129.755 226.016 129.755H233.425C233.694 129.755 233.922 129.849 234.11 130.037C234.298 130.225 234.392 130.453 234.392 130.722V170.015C234.392 170.283 234.298 170.512 234.11 170.7ZM255.43 171.545C259.833 171.545 263.135 170.122 265.336 167.277C265.444 167.116 265.551 167.063 265.659 167.116C265.766 167.17 265.82 167.277 265.82 167.438V170.015C265.82 170.283 265.914 170.512 266.102 170.7C266.289 170.887 266.518 170.981 266.786 170.981H274.115C274.384 170.981 274.612 170.887 274.8 170.7C274.988 170.512 275.082 170.283 275.082 170.015V130.802C275.082 130.534 274.988 130.306 274.8 130.118C274.612 129.93 274.384 129.836 274.115 129.836H266.786C266.518 129.836 266.289 129.93 266.102 130.118C265.914 130.306 265.82 130.534 265.82 130.802V155.28C265.82 157.803 265.095 159.816 263.645 161.319C262.195 162.822 260.263 163.574 257.846 163.574C255.484 163.574 253.645 162.822 252.329 161.319C251.014 159.816 250.356 157.803 250.356 155.28V130.802C250.356 130.534 250.262 130.306 250.074 130.118C249.886 129.93 249.658 129.836 249.39 129.836H241.98C241.712 129.836 241.484 129.93 241.296 130.118C241.108 130.306 241.014 130.534 241.014 130.802V157.937C241.014 162.285 242.396 165.64 245.162 168.002C247.927 170.364 251.35 171.545 255.43 171.545ZM308.765 168.203C305.758 170.377 301.758 171.464 296.765 171.464C293.382 171.464 290.415 170.968 287.865 169.975C285.315 168.982 283.341 167.613 281.945 165.868C280.549 164.124 279.851 162.178 279.851 160.031V159.306C279.851 159.038 279.945 158.809 280.133 158.622C280.321 158.434 280.549 158.34 280.818 158.34H287.905C288.174 158.34 288.402 158.434 288.59 158.622C288.778 158.809 288.872 159.038 288.872 159.306V159.467C288.872 160.809 289.61 161.977 291.087 162.97C292.563 163.963 294.429 164.459 296.684 164.459C298.832 164.459 300.577 164.016 301.919 163.131C303.261 162.245 303.933 161.131 303.933 159.789C303.933 158.554 303.382 157.629 302.281 157.011C301.181 156.394 299.396 155.736 296.926 155.038L293.865 154.072C291.127 153.267 288.818 152.408 286.939 151.496C285.06 150.583 283.476 149.335 282.187 147.751C280.898 146.168 280.254 144.142 280.254 141.672C280.254 137.915 281.731 134.922 284.684 132.694C287.637 130.467 291.53 129.353 296.362 129.353C299.637 129.353 302.51 129.876 304.98 130.923C307.449 131.97 309.355 133.419 310.698 135.271C312.04 137.123 312.711 139.23 312.711 141.592C312.711 141.86 312.617 142.088 312.429 142.276C312.241 142.464 312.013 142.558 311.745 142.558H304.899C304.631 142.558 304.402 142.464 304.214 142.276C304.026 142.088 303.933 141.86 303.933 141.592C303.933 140.196 303.248 139.029 301.879 138.089C300.51 137.15 298.644 136.68 296.281 136.68C294.187 136.68 292.483 137.069 291.167 137.848C289.852 138.626 289.194 139.713 289.194 141.109C289.194 142.397 289.825 143.377 291.087 144.048C292.348 144.719 294.456 145.457 297.409 146.262L299.181 146.745C302.026 147.604 304.416 148.476 306.349 149.362C308.282 150.248 309.919 151.482 311.262 153.066C312.604 154.649 313.275 156.703 313.275 159.225C313.275 163.037 311.772 166.029 308.765 168.203Z" fill="#00495D"/>
<path fill-rule="evenodd" clip-rule="evenodd" d="M133.089 91.3049C129.092 92.7468 125.507 90.8573 122.183 89.1051C120.397 88.1636 118.686 87.2617 117.027 86.9376C121.402 86.9448 125.75 86.1952 128.042 84.3219C127.856 84.2709 127.518 84.2089 127.056 84.124C124.573 83.668 118.503 82.5532 113.073 78.9516C107.718 75.3997 103.948 69.0262 102.877 65.299C105.922 68.9009 108.754 70.0512 108.976 69.8927C109.409 68.9507 109.087 68.028 108.278 65.7059L108.234 65.5791C106.034 59.2615 107.252 55.6967 111.197 50.773C113.861 47.4494 116.367 44.1495 116.905 39.7615C117.233 37.083 117.176 36.7782 114.892 33.1415C119.374 33.484 122.624 36.0885 126.07 38.8505C126.753 39.3971 127.442 39.9499 128.151 40.4925C128.231 40.365 128.34 40.2158 128.469 40.0407L128.469 40.0406C129.436 38.7195 131.488 35.9176 130.431 29.7432C129.234 22.75 130.925 18.141 134.731 13.993C140.389 7.82686 149.289 5.20832 156.21 3.172L156.21 3.17199C158.61 2.46581 160.772 1.82966 162.479 1.13985C159.766 3.90711 156.057 9.90663 158.249 15.6527C160.288 20.9972 164.604 22.8426 165.808 23.3573L165.808 23.3573C165.898 23.396 165.971 23.4272 166.024 23.4517C166.341 22.6231 166.525 18.1304 165.897 15.6224C165.272 13.1263 164.556 11.2256 164.01 9.77284C163.952 9.61941 163.896 9.47098 163.842 9.32737C169.485 10.871 173.114 14.5654 176.309 18.8442C179.311 22.8643 180.756 27.5188 182.231 32.2738L182.233 32.2785C182.322 32.5678 182.412 32.8574 182.503 33.1473C182.559 32.0696 182.649 30.9892 182.739 29.9089V29.9087C182.945 27.445 183.15 24.9813 182.959 22.5486C182.824 20.8276 182.495 19.1218 182.163 17.3935C181.813 15.5732 181.457 13.7279 181.318 11.8133C181.96 12.4176 182.603 13.0214 183.246 13.6252L183.248 13.6274C184.7 14.9911 186.152 16.3549 187.598 17.7252C192.714 22.575 197.781 27.4689 201.606 33.4644C205.851 40.1169 207.442 47.0943 204.333 54.6994C203.908 55.7409 202.203 57.355 200.878 58.5797C206.156 58.2748 212.864 56.2802 216.883 53.2971C218.638 59.1997 217.62 64.6136 214.821 69.7988C212.426 74.2346 210.74 76.8257 206.524 79.577C206.135 79.8312 204.812 80.3464 203.33 80.924C200.668 81.9614 197.49 83.2 198.271 83.4878C202.51 85.0489 208.91 82.4843 212.067 81.2193L212.067 81.2192C212.654 80.984 213.129 80.7937 213.457 80.6833C211.685 82.2914 210.256 83.9036 208.941 85.3877C203.777 91.2164 200.364 95.0676 184.774 88.9214L184.682 88.8854C184.709 88.4202 184.723 87.9514 184.723 87.4794V73.8764C184.723 60.8084 174.129 50.2146 161.061 50.2146C147.993 50.2146 137.4 60.8084 137.4 73.8764V87.4794C137.4 88.2969 137.441 89.1048 137.522 89.901C135.486 90.4852 133.957 90.9919 133.089 91.3049ZM180.317 104.431C179.736 103.786 179.155 103.142 178.502 102.418C179.359 101.794 180.882 101.704 182 101.637C182.492 101.608 182.905 101.583 183.15 101.52C181.037 99.3487 173.655 92.0465 161.359 92.0465C149.063 92.0465 143.97 98.2398 141.168 102.423C143.09 101.525 143.549 101.931 144.39 102.828C144.239 103.1 144.139 103.334 144.04 103.562C143.759 104.216 143.494 104.832 142.116 106.205L146.238 104.841C146.171 105.233 146.324 105.679 146.49 106.162C146.687 106.733 146.901 107.357 146.791 108.004C149.029 105.553 153.378 102.004 161.232 102.004C169.085 102.004 174.959 106.62 176.489 108.28C176.322 107.095 175.418 104.563 174.775 104.093C177.049 103.748 178.814 104.158 179.697 104.362C180.086 104.453 180.304 104.503 180.317 104.431Z" fill="#009BC5"/>
</svg>
